<?xml version="1.0" encoding="UTF-8"?> <svg xmlns="http://www.w3.org/2000/svg" xmlns:xlink="http://www.w3.org/1999/xlink" width="190px" height="30px" viewBox="0 0 190 30" version="1.1"><title>logo</title><defs><polygon id="path-1" points="0 0 190 0 190 29.9369497 0 29.9369497"></polygon></defs><g id="Desktop" stroke="none" stroke-width="1" fill="none" fill-rule="evenodd"><g id="Home" transform="translate(-60.000000, -85.000000)"><g id="navigation" transform="translate(0.000000, 50.000000)"><g id="logo" transform="translate(60.000000, 35.000000)"><polyline id="Fill-1" fill="#2D30C6" points="68.1003616 22.525456 68.1003616 24.3128302 55.1687107 24.3128302 55.1687107 5.06457547 57.1535535 5.06457547 57.1535535 22.525456 68.1003616 22.525456"></polyline><path d="M71.3617296,14.6906447 C71.3617296,19.1314465 74.9257233,22.7306918 79.4343396,22.7306918 C83.9426572,22.7306918 87.5069497,19.1314465 87.5069497,14.6906447 C87.5069497,10.2498428 83.9426572,6.65029874 79.4343396,6.65029874 C74.9257233,6.65029874 71.3617296,10.2498428 71.3617296,14.6906447 Z M89.5613994,14.6906447 C89.5613994,20.1579245 85.0273899,24.5885692 79.4343396,24.5885692 C73.8406918,24.5885692 69.3069811,20.1579245 69.3069811,14.6906447 C69.3069811,9.22336478 73.8406918,4.79122642 79.4343396,4.79122642 C85.0273899,4.79122642 89.5613994,9.22336478 89.5613994,14.6906447 L89.5613994,14.6906447 Z" id="Fill-2" fill="#2D30C6"></path><path d="M109.355456,7.40701258 L108.059214,8.76867925 C106.499182,7.39327044 104.524198,6.61713836 102.367877,6.61833333 C97.8921226,6.62072327 94.1856289,10.1091352 94.1856289,14.6906447 C94.1856289,19.1314465 97.7496226,22.7297956 102.258538,22.7297956 C104.623679,22.7297956 106.722044,21.9243868 108.331069,20.5701887 L108.331069,15.9307233 L102.367877,15.9307233 L102.367877,14.4636006 L110.234654,14.4636006 L110.234057,21.6363994 C108.157201,23.4655975 105.349025,24.5888679 102.258538,24.5888679 C96.6648899,24.5888679 92.1308805,20.1582233 92.1308805,14.6909434 C92.1308805,8.93627358 96.8480189,4.77360063 102.366981,4.79027994 C104.988443,4.79869497 107.461431,5.74481132 109.355456,7.40701258" id="Fill-3" fill="#2D30C6"></path><polygon id="Fill-4" fill="#2D30C6" points="115.749135 24.3137264 117.734277 24.3137264 117.734277 5.0654717 115.749135 5.0654717"></polygon><polyline id="Fill-5" fill="#2D30C6" points="137.805267 24.3128302 125.194167 8.14610063 125.194167 24.3128302 123.240393 24.3128302 123.240393 5.06457547 125.420016 5.06517296 138.039481 21.2435535 138.039481 5.06457547 139.992956 5.06457547 139.992956 24.3128302 137.805267 24.3128302"></polyline><polyline id="Fill-6" fill="#2D30C6" points="150.618616 24.3137264 143.066714 5.06457547 148.29739 5.06457547 153.496399 19.180739 158.729465 5.06457547 163.96044 5.06457547 156.354465 24.3137264 150.618616 24.3137264"></polyline><path d="M173.606824,4.79122427 C176.57423,4.7897327 179.499214,5.56676101 181.693774,6.90542453 L179.853821,10.288978 C177.716619,9.15584906 175.117862,8.48636792 173.132123,8.48756289 C171.755519,8.49055031 170.576085,9.02858491 170.576085,10.3066038 C170.576085,11.1415881 171.064827,11.504261 174.32739,12.3332704 C178.947138,13.5643868 182.127248,14.543066 182.127248,18.4933333 C182.127248,22.4651101 178.954607,24.5885692 174.220739,24.5885692 C170.76489,24.5885692 167.540865,23.6750157 165.006635,21.9889151 L166.972657,18.716195 C169.369764,20.121478 172.202437,20.8402516 174.711871,20.8429403 C176.193333,20.8465252 177.505708,20.2926572 177.505708,19.0475 C177.505708,17.5146541 176.587673,17.3551258 173.087909,16.4729403 C168.674591,15.3759591 165.837736,14.346195 165.837736,10.8431447 C165.837736,6.66523585 169.28044,4.79331761 173.606226,4.79122427 L173.606824,4.79122427" id="Fill-7" fill="#2D30C6"></path><g id="Group-12"><mask id="mask-2" fill="white"><use xlink:href="#path-1"></use></mask><g id="Clip-9"></g><polygon id="Fill-8" fill="#2D30C6" mask="url(#mask-2)" points="185.615362 24.3137264 190 24.3137264 190 5.06666667 185.615362 5.06666667"></polygon><polyline id="Fill-10" fill="#2D30C6" mask="url(#mask-2)" points="15.5617767 29.9548742 0 29.9548742 13.3469025 9.49014151 28.9086792 9.49014151 15.5617767 29.9548742"></polyline><polyline id="Fill-11" fill="#2D30C6" mask="url(#mask-2)" points="38.6004717 20.4647327 23.038695 20.4647327 36.3855975 0 51.9473742 0 38.6004717 20.4647327"></polyline></g></g></g></g></g></svg> 